<svg width="118" height="90" viewBox="0 0 118 90" fill="none" xmlns="http://www.w3.org/2000/svg">
<path d="M4.07884e-06 0H20.2796V35.7839L42.4992 0H67.6123L76.5 14.2581L85.3877 0H110L88.8061 34L110 68H85.3878L76.5 53.7419L67.6122 68H43L64.1939 34L55.1115 19.4297L24.6769 68.4436H0L4.07884e-06 0Z" fill="black"/>
<path d="M1.90236 86.3124H4.83303V87.4435H0.719813V80.2454H1.90236V86.3124ZM17.6959 87.4435L17.192 85.9936H14.1277L13.6238 87.4435H12.3384L14.9503 80.2454H16.3694L18.971 87.4435H17.6959ZM14.5185 84.8831H16.8013L15.6599 81.6336L14.5185 84.8831ZM32.1361 87.4435H30.789L29.2054 84.8419L27.6219 87.4435H26.2748L28.5371 83.7416L26.4085 80.2454H27.7453L29.2054 82.6414L30.6656 80.2454H32.0127L29.8841 83.7416L32.1361 87.4435ZM52.1635 87.5772C50.7444 87.5772 49.7675 86.878 49.387 85.8085L50.4051 85.2121C50.6621 85.9422 51.2174 86.4255 52.1943 86.4255C53.1301 86.4255 53.5311 86.0039 53.5311 85.4795C53.5311 84.8419 52.9655 84.626 51.8961 84.2969C50.7753 83.9576 49.6853 83.5463 49.6853 82.1889C49.6853 80.8624 50.7855 80.1117 51.9989 80.1117C53.1815 80.1117 54.0555 80.739 54.508 81.6953L53.5105 82.2712C53.2535 81.6953 52.801 81.2634 51.9989 81.2634C51.31 81.2634 50.8678 81.6131 50.8678 82.1581C50.8678 82.7133 51.2688 82.9499 52.3177 83.2789C53.5105 83.6594 54.7137 84.0296 54.7137 85.4589C54.7137 86.7751 53.6648 87.5772 52.1635 87.5772ZM65.4306 80.2454C66.788 80.2454 67.8163 81.2737 67.8163 82.6105C67.8163 83.937 66.788 84.9756 65.4306 84.9756H63.9601V87.4435H62.7776V80.2454H65.4306ZM65.4306 83.865C66.1298 83.865 66.6337 83.3303 66.6337 82.6105C66.6337 81.8804 66.1298 81.356 65.4306 81.356H63.9601V83.865H65.4306ZM79.9043 87.4435L79.4004 85.9936H76.3361L75.8322 87.4435H74.5468L77.1587 80.2454H78.5778L81.1794 87.4435H79.9043ZM76.7268 84.8831H79.0097L77.8683 81.6336L76.7268 84.8831ZM92.1813 87.5772C89.991 87.5772 88.4177 85.9319 88.4177 83.8445C88.4177 81.757 89.991 80.1117 92.1813 80.1117C93.4975 80.1117 94.6698 80.7801 95.2765 81.829L94.2482 82.4254C93.8677 81.7159 93.0862 81.2634 92.1813 81.2634C90.6286 81.2634 89.6002 82.3637 89.6002 83.8445C89.6002 85.3252 90.6286 86.4255 92.1813 86.4255C93.0862 86.4255 93.878 85.9731 94.2482 85.2635L95.2765 85.8497C94.6801 86.8985 93.5078 87.5772 92.1813 87.5772ZM104.537 86.3124H107.725V87.4435H103.354V80.2454H107.673V81.3765H104.537V83.2481H107.416V84.3689H104.537V86.3124ZM116.499 87.5669C116.067 87.5669 115.728 87.2173 115.728 86.7957C115.728 86.3638 116.067 86.0245 116.499 86.0245C116.92 86.0245 117.27 86.3638 117.27 86.7957C117.27 87.2173 116.92 87.5669 116.499 87.5669Z" fill="black"/>
</svg>
