<svg width="80" height="80" viewBox="0 0 80 80" fill="none" xmlns="http://www.w3.org/2000/svg">
<path d="M49.4999 56.4545C41.0163 61.3525 30.7664 58.0071 27.065 51.596L21.8688 54.596C27.3214 64.0402 41.3126 68.1096 52.4999 61.6506C63.6872 55.1916 67.1586 41.0402 61.706 31.596L56.5099 34.596C60.2113 41.0071 57.9836 51.5564 49.4999 56.4545Z" fill="white"/>
<path d="M19.6512 40.6105C19.5164 41.7123 19.8282 43.0613 20.5455 44.3037L15.3493 47.3037C14.1336 45.198 13.3695 42.5495 13.6955 39.8823C14.0369 37.0898 15.5628 34.4787 18.5096 32.7774C21.4563 31.0761 24.4805 31.0602 27.0697 32.1607C29.5425 33.212 31.4541 35.198 32.6698 37.3037L27.4737 40.3037C26.7564 39.0613 25.744 38.1168 24.7224 37.6826C23.8173 37.2979 22.7769 37.2419 21.5096 37.9736C20.2422 38.7053 19.7705 39.6343 19.6512 40.6105Z" fill="white"/>
<path d="M46.5262 29.3037C45.8089 28.0613 45.4971 26.7123 45.6319 25.6105C45.7512 24.6343 46.2229 23.7053 47.4903 22.9736C48.7576 22.2419 49.798 22.2979 50.7032 22.6826C51.7247 23.1168 52.7371 24.0613 53.4544 25.3037L58.6505 22.3037C57.4348 20.198 55.5232 18.212 53.0504 17.1607C50.4612 16.0602 47.437 16.0761 44.4903 17.7774C41.5435 19.4787 40.0176 22.0898 39.6762 24.8823C39.3502 27.5495 40.1143 30.198 41.33 32.3037L46.5262 29.3037Z" fill="white"/>
<path fill-rule="evenodd" clip-rule="evenodd" d="M74.6409 19.9998C85.6866 39.1316 79.1316 63.5952 59.9998 74.6409C40.8681 85.6866 16.4045 79.1316 5.35883 59.9998C-5.68687 40.8681 0.868134 16.4045 19.9998 5.35883C39.1316 -5.68687 63.5952 0.868134 74.6409 19.9998ZM69.4447 22.9998C78.8336 39.2618 73.2618 60.0559 56.9998 69.4447C40.7379 78.8336 19.9438 73.2618 10.555 56.9998C1.16613 40.7379 6.73788 19.9438 22.9998 10.555C39.2618 1.16613 60.0559 6.73788 69.4447 22.9998Z" fill="white"/>
</svg>
