<svg width="75" height="41" viewBox="0 0 75 41" fill="none" xmlns="http://www.w3.org/2000/svg">
<path d="M12.915 34.492C19.926 34.492 23.78 28.506 23.78 19.65C23.78 10.794 19.926 4.808 12.915 4.808C5.904 4.808 2.05 10.794 2.05 19.65C2.05 28.506 5.904 34.492 12.915 34.492ZM12.915 31.704C7.872 31.704 4.92 27.317 4.92 19.65C4.92 11.983 7.872 7.596 12.915 7.596C17.958 7.596 20.91 11.983 20.91 19.65C20.91 27.317 17.958 31.704 12.915 31.704ZM43.5372 19.199C45.7512 17.928 47.3502 15.714 47.3502 12.762C47.3502 7.309 42.9632 4.808 38.6992 4.808C34.4352 4.808 30.0482 7.309 30.0482 12.762C30.0482 15.714 31.6472 17.928 33.8612 19.199C31.0322 20.511 29.1052 23.012 29.1052 26.21C29.1052 31.622 33.4922 34.492 38.6992 34.492C43.9062 34.492 48.2932 31.622 48.2932 26.21C48.2932 23.012 46.3662 20.511 43.5372 19.199ZM38.6992 7.596C41.6512 7.596 44.4802 9.031 44.4802 12.762C44.4802 16.247 41.6512 17.928 38.6992 17.928C35.7472 17.928 32.9182 16.247 32.9182 12.762C32.9182 9.031 35.7472 7.596 38.6992 7.596ZM38.6992 31.704C34.8042 31.704 31.9752 29.9 31.9752 26.21C31.9752 22.52 34.8042 20.716 38.6992 20.716C42.5942 20.716 45.4232 22.52 45.4232 26.21C45.4232 29.9 42.5942 31.704 38.6992 31.704Z" fill="#2C2C2C"/>
<path d="M60 37.75L74.5 3.25" stroke="#2C2C2C"/>
</svg>
