<svg width="74" height="41" viewBox="0 0 74 41" fill="none" xmlns="http://www.w3.org/2000/svg">
<path d="M12.915 34.492C19.926 34.492 23.78 28.506 23.78 19.65C23.78 10.794 19.926 4.808 12.915 4.808C5.904 4.808 2.05 10.794 2.05 19.65C2.05 28.506 5.904 34.492 12.915 34.492ZM12.915 31.704C7.872 31.704 4.92 27.317 4.92 19.65C4.92 11.983 7.872 7.596 12.915 7.596C17.958 7.596 20.91 11.983 20.91 19.65C20.91 27.317 17.958 31.704 12.915 31.704ZM28.7048 34H46.9498V31.212H32.8048L41.0048 23.053C43.9158 20.142 46.3348 17.067 46.3348 13.418C46.3348 7.801 41.9478 4.808 37.6838 4.808C34.0348 4.808 30.6728 6.571 28.8278 10.22L31.2468 11.655C32.6408 8.826 34.8958 7.596 37.6838 7.596C40.6358 7.596 43.4648 9.523 43.4648 13.418C43.4648 16.083 41.4558 18.584 39.0368 21.003L28.7048 31.417V34Z" fill="#2C2C2C"/>
<path d="M59 37.75L73.5 3.25" stroke="#2C2C2C"/>
</svg>
